<svg xmlns="http://www.w3.org/2000/svg" viewBox="0 0 414 220" role="img" aria-labelledby="title desc">
  <title id="title">Logo UCES</title>
  <desc id="desc">Logotipo verde y blanco similar al emblema institucional de UCES.</desc>
  <rect width="414" height="220" fill="#ffffff" />

  <path
    d="M18 31C75 20 115 14 177 14C252 14 296 22 396 31L396 39C299 37 252 35 177 35C107 35 70 37 18 39Z"
    fill="#007a5a"
  />
  <path
    d="M18 179C70 173 107 175 177 175C252 175 299 173 396 179L396 187C296 198 252 206 177 206C115 206 75 200 18 187Z"
    fill="#007a5a"
  />

  <text
    x="207"
    y="155"
    text-anchor="middle"
    font-family="'Times New Roman', Georgia, serif"
    font-size="112"
    font-weight="700"
    letter-spacing="-7"
    fill="#007a5a"
    transform="translate(207 0) scale(1.12 1) translate(-207 0)"
  >
    UCES
  </text>
</svg>
